<svg xmlns="http://www.w3.org/2000/svg" width="35.321" height="47.73" viewBox="0 0 35.321 47.73"><g id="np_unhappy-shopper_159090_000000" transform="translate(-13)"><path id="Path_10380" data-name="Path 10380" d="M42.593,14.319C42.593,6.395,37.248,0,30.66,0S18.728,6.395,18.728,14.319H13L15.864,47.73H45.457l2.864-33.411ZM30.66,1.909c5.538,0,10.023,5.584,10.023,12.41H20.637C20.637,7.493,25.123,1.909,30.66,1.909ZM43.309,45.344H18.06L15.625,16.706H45.744Z" transform="translate(0 0)" fill="#bebebe"></path><path id="Path_10381" data-name="Path 10381" d="M38.239,64.989a8.392,8.392,0,0,1,8.353,8.353h2.387a10.739,10.739,0,0,0-21.479,0h2.387A8.361,8.361,0,0,1,38.239,64.989Z" transform="translate(-7.579 -32.722)" fill="#bebebe"></path><path id="Path_10382" data-name="Path 10382" d="M39.773,47.386a2.387,2.387,0,1,1-4.773,0,2.387,2.387,0,1,1,4.773,0" transform="translate(-11.499 -23.521)" fill="#bebebe"></path><path id="Path_10383" data-name="Path 10383" d="M59.773,47.386a2.387,2.387,0,1,1-4.773,0,2.387,2.387,0,1,1,4.773,0" transform="translate(-21.953 -23.521)" fill="#bebebe"></path></g></svg>