<svg xmlns="http://www.w3.org/2000/svg" width="10.064" height="10.064" viewBox="0 0 10.064 10.064"><g id="Group_3425" data-name="Group 3425" transform="translate(-1393.554 -6715.064)"><path id="Path_13568" data-name="Path 13568" d="M5.032,0C3.666,0,3.494.006,2.957.03A3.693,3.693,0,0,0,1.736.264a2.467,2.467,0,0,0-.891.58,2.467,2.467,0,0,0-.58.891A3.693,3.693,0,0,0,.03,2.957C.006,3.494,0,3.666,0,5.032S.006,6.57.03,7.107A3.693,3.693,0,0,0,.264,8.329a2.467,2.467,0,0,0,.58.891,2.467,2.467,0,0,0,.891.58,3.694,3.694,0,0,0,1.222.234c.537.024.708.03,2.075.03s1.538-.006,2.075-.03A3.694,3.694,0,0,0,8.329,9.8,2.573,2.573,0,0,0,9.8,8.329a3.694,3.694,0,0,0,.234-1.222c.024-.537.03-.708.03-2.075s-.006-1.538-.03-2.075A3.694,3.694,0,0,0,9.8,1.736,2.467,2.467,0,0,0,9.22.845a2.467,2.467,0,0,0-.891-.58A3.693,3.693,0,0,0,7.107.03C6.57.006,6.4,0,5.032,0Zm0,.907c1.344,0,1.5.005,2.033.029A2.784,2.784,0,0,1,8,1.109a1.559,1.559,0,0,1,.579.376,1.559,1.559,0,0,1,.376.579A2.784,2.784,0,0,1,9.128,3c.024.531.029.69.029,2.033s-.005,1.5-.029,2.033A2.784,2.784,0,0,1,8.955,8,1.667,1.667,0,0,1,8,8.955a2.784,2.784,0,0,1-.934.173c-.531.024-.69.029-2.033.029S3.529,9.153,3,9.128a2.784,2.784,0,0,1-.934-.173,1.559,1.559,0,0,1-.579-.376A1.559,1.559,0,0,1,1.109,8a2.784,2.784,0,0,1-.173-.934C.912,6.535.907,6.376.907,5.032S.912,3.529.936,3a2.784,2.784,0,0,1,.173-.934,1.559,1.559,0,0,1,.376-.579,1.559,1.559,0,0,1,.579-.376A2.784,2.784,0,0,1,3,.936C3.529.912,3.689.907,5.032.907Z" transform="translate(1393.554 6715.064)" fill="#151211"></path><path id="Path_13569" data-name="Path 13569" d="M10.516,12.149a1.633,1.633,0,1,1,1.633-1.633A1.633,1.633,0,0,1,10.516,12.149Zm0-4.149a2.516,2.516,0,1,0,2.516,2.516A2.516,2.516,0,0,0,10.516,8Z" transform="translate(1388.07 6709.581)" fill="#151211"></path></g></svg>