<svg xmlns="http://www.w3.org/2000/svg" width="41.298" height="41.298" viewBox="0 0 41.298 41.298"><path id="np_contact_3106476_000000" d="M12.143,39.207h0l.034.036h0A24.546,24.546,0,0,0,29,46.3a17.809,17.809,0,0,0,6.484-1.159,2.289,2.289,0,0,0,1.44-2.129V40a3.04,3.04,0,0,0-1.482-2.6l-5.42-3.211a1.9,1.9,0,0,0-2.6.63l-2.246,3.6c-.173.274-.583.178-.663.155a16,16,0,0,1-7.312-4.5,16,16,0,0,1-4.5-7.31c-.021-.08-.119-.49.155-.663l1.993-1.247,1.6-1h0a1.9,1.9,0,0,0,.63-2.6l-3.19-5.4a3.041,3.041,0,0,0-2.6-1.482H8.286A2.289,2.289,0,0,0,6.16,15.8c-2.824,7.227-.351,17.014,5.88,23.3ZM7.7,16.4a.63.63,0,0,1,.588-.387H11.3a1.383,1.383,0,0,1,1.182.671l3.206,5.407a.258.258,0,0,1-.083.359l-1.6,1-2,1.247a2.178,2.178,0,0,0-.872,2.5,17.809,17.809,0,0,0,4.93,8.043,17.809,17.809,0,0,0,8.043,4.93h0a2.181,2.181,0,0,0,2.5-.872l2.248-3.6a.258.258,0,0,1,.354-.083l5.42,3.208A1.381,1.381,0,0,1,35.3,40v3.012h0a.627.627,0,0,1-.39.588c-6.654,2.6-15.719.274-21.565-5.536L13.291,38l-.07-.067C7.435,32.091,5.117,23.044,7.713,16.4ZM45.469,5H23.36a.823.823,0,0,0-.823.826V22.345h0a.823.823,0,0,0,.823.826h1.11L22.6,27.62a.826.826,0,0,0,1.154,1.048l10.211-5.5H45.472a.826.826,0,0,0,.826-.826V5.826A.826.826,0,0,0,45.472,5Zm-.823,16.519H33.754a.826.826,0,0,0-.39.1l-8.337,4.488,1.445-3.441h0a.826.826,0,0,0-.774-1.146H24.17V6.649H44.646ZM40.79,12.384H28.039V10.733H40.79Zm0,5.046H28.039V15.779H40.79Z" transform="translate(-5 -5)" fill="#151211"></path></svg>