<svg xmlns="http://www.w3.org/2000/svg" width="24.012" height="24" viewBox="0 0 24.012 24"><g id="Group_3425" data-name="Group 3425" transform="translate(-1223.999 -1136)"><path id="Path_132" data-name="Path 132" d="M17.722,4.074A20.93,20.93,0,0,1,12.349.166a.515.515,0,0,0-.709,0A20.927,20.927,0,0,1,6.268,4.074,20.947,20.947,0,0,1,.406,6.028a.5.5,0,0,0-.414.537A21.956,21.956,0,0,0,5.113,18.849a21.079,21.079,0,0,0,6.66,5.124.5.5,0,0,0,.443,0,21.069,21.069,0,0,0,6.658-5.124A21.956,21.956,0,0,0,24,6.565a.5.5,0,0,0-.412-.537,20.961,20.961,0,0,1-5.863-1.954Zm.4,14.121h0A20.033,20.033,0,0,1,12,22.963,20.038,20.038,0,0,1,5.872,18.2,20.887,20.887,0,0,1,1.036,6.927,21.983,21.983,0,0,0,6.719,4.966,21.928,21.928,0,0,0,12,1.22a21.958,21.958,0,0,0,5.27,3.745,21.98,21.98,0,0,0,5.683,1.961A20.888,20.888,0,0,1,18.118,18.2Z" transform="translate(1224.009 1135.975)" fill="#2c2c2c"></path><g id="Group_2964" data-name="Group 2964" transform="translate(-0.55 -25.55)"><path id="Path_133" data-name="Path 133" d="M39.715,34.164a.554.554,0,0,0-.555.555,4.441,4.441,0,1,1-4.441-4.441.555.555,0,0,0,0-1.109,5.55,5.55,0,1,0,5.55,5.55.554.554,0,0,0-.555-.555Z" transform="translate(1201.835 1138.827)" fill="#2c2c2c"></path><path id="Path_134" data-name="Path 134" d="M42.634,34.743a.555.555,0,1,0-.785.785l2.22,2.22h0a.555.555,0,0,0,.392.162h.031a.558.558,0,0,0,.4-.207l4.441-5.551h0a.555.555,0,1,0-.868-.693l-4.052,5.067Z" transform="translate(1192.648 1137.3)" fill="#2c2c2c"></path></g></g></svg>