<svg xmlns="http://www.w3.org/2000/svg" width="16" height="16" viewBox="0 0 16 16"><path id="np_contact_3106476_000000" d="M8.582,21.078,8.6,21.1h0a12.3,12.3,0,0,0,8.429,3.53,8.92,8.92,0,0,0,3.249-.581A1.147,1.147,0,0,0,21,22.978V21.47a1.523,1.523,0,0,0-.742-1.3l-2.711-1.608a.953.953,0,0,0-1.3.315l-1.125,1.8c-.086.137-.293.09-.332.078A8.017,8.017,0,0,1,11.127,18.5a8.016,8.016,0,0,1-2.256-3.662c-.011-.04-.059-.246.078-.332l1-.624.8-.5h0a.953.953,0,0,0,.315-1.3L9.456,9.366a1.523,1.523,0,0,0-1.3-.741H6.646a1.147,1.147,0,0,0-1.066.721C4.166,12.966,5.4,17.869,8.525,21.021ZM6.352,9.647a.315.315,0,0,1,.294-.194H8.155a.693.693,0,0,1,.592.337L10.353,12.5a.131.131,0,0,1-.041.18l-.8.5-1,.625a1.091,1.091,0,0,0-.437,1.252,8.92,8.92,0,0,0,2.469,4.029,8.919,8.919,0,0,0,4.029,2.469h0a1.093,1.093,0,0,0,1.252-.437l1.126-1.8a.13.13,0,0,1,.178-.041l2.709,1.607a.691.691,0,0,1,.338.592v1.508h0a.314.314,0,0,1-.195.3c-3.333,1.3-7.874.136-10.8-2.774l-.028-.03-.035-.033c-2.9-2.929-4.06-7.461-2.759-10.79Z" transform="translate(-4.999 -8.625)"></path></svg>