<svg xmlns="http://www.w3.org/2000/svg" width="13.899" height="16.536" viewBox="0 0 13.899 16.536"><g id="Group_3049" data-name="Group 3049" transform="translate(-1225.68 -1092.8)"><path id="Path_13551" data-name="Path 13551" d="M23,23.514a6.757,6.757,0,1,1,6.75-6.758A6.761,6.761,0,0,1,23,23.514ZM23,10.4a6.359,6.359,0,1,0,6.35,6.359A6.361,6.361,0,0,0,23,10.4Z" transform="translate(1209.63 1083.001)" fill="#2c2c2c" stroke="#2c2c2c" stroke-width="0.4"></path><path id="Path_13552" data-name="Path 13552" d="M41.233,37.792l-1.82-1.934a.2.2,0,0,1,.3-.281l1.453,1.545,2.172-3.532a.2.2,0,1,1,.349.214Z" transform="translate(1191.092 1064.166)" fill="#2c2c2c" stroke="#2c2c2c" stroke-width="0.4"></path><path id="Path_13553" data-name="Path 13553" d="M33.9,75.929l-.884-.725-1.114.027.637-2.35a.2.2,0,0,1,.4.107l-.494,1.82.717-.018.569.467.677-1.684a.2.2,0,0,1,.38.153Z" transform="translate(1197.088 1032.732)" fill="#2c2c2c" stroke="#2c2c2c" stroke-width="0.4"></path><path id="Path_13554" data-name="Path 13554" d="M58.863,75.687l-1.491-2.609a.2.2,0,1,1,.355-.2L58.942,75l.487-.525.721-.082-1.012-2.1a.2.2,0,1,1,.369-.178l1.263,2.62-1.143.129Z" transform="translate(1176.626 1033.313)" stroke="#000" stroke-width="0.4"></path></g></svg>