<svg xmlns="http://www.w3.org/2000/svg" width="30.461" height="16" viewBox="0 0 30.461 16"><path id="np_delivery_4573027_000000" d="M9.871,26.2a.523.523,0,0,0,0,1.046H24.35V39.209H17.745a2.571,2.571,0,0,0-5.094,0H10.4V36.934a.525.525,0,0,0-.9-.372.519.519,0,0,0-.152.372v2.8a.522.522,0,0,0,.523.523h2.84a2.564,2.564,0,0,0,4.974,0h9.581a2.562,2.562,0,0,0,4.97,0h2.39a.524.524,0,0,0,.524-.523V34.859a.536.536,0,0,0-.038-.2l-1.967-4.874a.526.526,0,0,0-.484-.328H25.4V26.722a.524.524,0,0,0-.524-.523ZM7.583,29.521a.525.525,0,0,0,0,1.05h7.924a.525.525,0,1,0,0-1.05Zm17.818.989h6.9l1.543,3.826H25.4ZM5.215,32.87a.523.523,0,0,0-.372.9.524.524,0,0,0,.372.152H15.507a.523.523,0,0,0,.373-.894.531.531,0,0,0-.373-.154ZM25.4,35.386h8.7v3.823H32.3a2.567,2.567,0,0,0-5.089,0H25.4Zm-10.244,2.65H15.2a1.5,1.5,0,1,1-.039,0Zm14.553,0h.039a1.5,1.5,0,1,1-.039,0Z" transform="translate(-4.687 -26.199)" fill="#151211"></path></svg>