<svg xmlns="http://www.w3.org/2000/svg" width="57" height="57" viewBox="0 0 57 57"><g id="Group_3522" data-name="Group 3522" transform="translate(-29.99 -32.59)"><path id="Path_13625" data-name="Path 13625" d="M86.99,61.09A28.5,28.5,0,0,1,40.36,83.08l-6.45,1.69,1.81-6.55A28.5,28.5,0,1,1,86.99,61.09Z" fill="#3fa236"></path><path id="_4691369_whatsapp_icon" data-name=" 4691369 whatsapp icon" d="M63.92,59.963c-.364-.181-2.137-1.045-2.467-1.168s-.572-.181-.814.181-.933,1.166-1.141,1.405-.422.254-.784.087a9.809,9.809,0,0,1-2.906-1.8,10.964,10.964,0,0,1-2.007-2.5c-.211-.363-.023-.562.158-.744.165-.163.364-.417.545-.632a2.99,2.99,0,0,0,.359-.6.662.662,0,0,0-.03-.634c-.087-.181-.812-1.959-1.114-2.667s-.589-.616-.812-.616c-.208-.018-.448-.018-.69-.018a1.367,1.367,0,0,0-.964.435,4.042,4.042,0,0,0-1.263,2.993,7.074,7.074,0,0,0,1.474,3.718,16.118,16.118,0,0,0,6.166,5.423c.863.363,1.536.581,2.06.76a4.986,4.986,0,0,0,2.273.146A3.72,3.72,0,0,0,64.4,62.011a2.994,2.994,0,0,0,.218-1.723c-.087-.163-.327-.254-.689-.417m-6.585,9h-.019A12.089,12.089,0,0,1,51.214,67.2l-.435-.261-4.534,1.182,1.219-4.407-.289-.454A11.991,11.991,0,0,1,65.846,48.469a11.834,11.834,0,0,1,3.517,8.451A12.006,12.006,0,0,1,57.351,68.869m10.22-22.125a14.684,14.684,0,0,0-10.246-4.17A14.376,14.376,0,0,0,44.812,64.141l-2.05,7.45,7.662-2a14.582,14.582,0,0,0,6.9,1.749h.007A14.435,14.435,0,0,0,71.779,56.961a14.258,14.258,0,0,0-4.225-10.17" transform="translate(0.903 3.406)" fill="#fff"></path></g></svg>