<svg xmlns="http://www.w3.org/2000/svg" width="64" height="52" viewBox="0 0 64 52" fill="none"><path d="M32.0434 52C26.6587 51.9965 21.2913 51.3562 16.0413 50.0909C15.1555 49.8825 14.3642 49.359 13.7997 48.608C13.2351 47.857 12.9315 46.9239 12.9396 45.9648V28.4841C2.90904 27.1665 0.190266 16.5958 0.00518462 12.3572C-0.0332674 11.4899 0.142686 10.6269 0.515717 9.85331C0.888747 9.07972 1.44599 8.42217 2.13255 7.94543C5.57018 5.53024 9.12645 3.30926 12.7864 1.29183C14.4759 0.542061 16.2751 0.106179 18.1049 0.00337755C18.4091 -0.0144587 18.7134 0.0385054 18.9962 0.158531L19.6706 0.441854C27.8315 2.96803 36.5159 2.89451 44.6374 0.230486C44.9076 0.113559 45.1969 0.050597 45.4884 0.0483484H45.5394C47.4503 0.0945787 49.3408 0.474469 51.1344 1.17265C51.2258 1.20693 51.3147 1.24826 51.4003 1.29632C55.0041 3.32456 58.5057 5.54618 61.8883 7.96117C62.5703 8.4402 63.1229 9.0982 63.4921 9.87075C63.8613 10.6433 64.0343 11.5039 63.9944 12.3684C63.7135 17.6189 60.6544 27.2092 51.2514 28.4729V45.9693C51.2538 46.9257 50.9466 47.8542 50.3808 48.6007C49.8151 49.3472 49.0248 49.8667 48.1412 50.073C42.8611 51.3502 37.4618 51.9955 32.0455 52M17.1943 45.7534C27.0052 48.0915 37.1862 48.0854 46.9945 45.7354V26.3547C46.9945 25.7584 47.2187 25.1864 47.6176 24.7647C48.0166 24.343 48.5577 24.1061 49.1219 24.1061C58.9887 24.1061 59.7162 12.609 59.746 12.1188C59.7454 12.0361 59.7255 11.9549 59.688 11.8823C59.6505 11.8097 59.5966 11.7481 59.5311 11.7028C56.3042 9.40096 52.9669 7.27695 49.5325 5.3393C48.7764 5.0551 47.9974 4.84436 47.2052 4.7097C47.1201 4.85136 47.0265 4.99077 46.9243 5.12344L35.394 20.1891C35.0078 20.6937 34.5228 21.104 33.9723 21.3917C33.4219 21.6794 32.819 21.8378 32.2052 21.856C31.5913 21.8742 30.9811 21.7516 30.4162 21.4969C29.8514 21.2421 29.3455 20.8612 28.9332 20.3802L15.9988 5.29208C15.9025 5.18006 15.8116 5.06298 15.7265 4.9413C15.331 5.06019 14.9419 5.2013 14.5607 5.36404C11.1005 7.29274 7.73494 9.40538 4.47692 11.6938C4.4047 11.7405 4.34579 11.8069 4.30645 11.8861C4.26712 11.9653 4.24884 12.0543 4.25354 12.1436C4.25354 12.2695 5.04705 24.1196 15.0606 24.1196C15.6248 24.1196 16.1659 24.3565 16.5649 24.7782C16.9638 25.1999 17.188 25.7718 17.188 26.3682L17.1943 45.7534ZM18.3686 4.70745L30.5095 18.8691C30.7156 19.1095 30.9685 19.2999 31.2507 19.4272C31.533 19.5546 31.838 19.6159 32.1448 19.6069C32.4516 19.598 32.7529 19.5189 33.028 19.3753C33.3032 19.2316 33.5457 19.0267 33.7389 18.7747L44.2587 5.03125C43.1461 5.34958 42.0228 5.62484 40.8911 5.85648L32.0838 17.3603L22.0915 5.70133C20.8384 5.42319 19.5964 5.09163 18.3686 4.70745Z" fill="white"></path></svg>