<svg xmlns="http://www.w3.org/2000/svg" width="110" height="110" viewBox="0 0 110 110" fill="none"><g clip-path="url(#clip0_290_3811)"><path d="M6.875 55C6.875 67.7635 11.9453 80.0043 20.9705 89.0295C29.9957 98.0547 42.2365 103.125 55 103.125C67.7635 103.125 80.0043 98.0547 89.0295 89.0295C98.0547 80.0043 103.125 67.7635 103.125 55C103.125 42.2365 98.0547 29.9957 89.0295 20.9705C80.0043 11.9453 67.7635 6.875 55 6.875C42.2365 6.875 29.9957 11.9453 20.9705 20.9705C11.9453 29.9957 6.875 42.2365 6.875 55ZM110 55C110 69.5869 104.205 83.5764 93.8909 93.8909C83.5764 104.205 69.5869 110 55 110C40.4131 110 26.4236 104.205 16.1091 93.8909C5.79463 83.5764 0 69.5869 0 55C0 40.4131 5.79463 26.4236 16.1091 16.1091C26.4236 5.79463 40.4131 0 55 0C69.5869 0 83.5764 5.79463 93.8909 16.1091C104.205 26.4236 110 40.4131 110 55ZM45.6912 42.9V43.3812H36.9531V42.9412C36.9531 34.6019 42.9963 26.4275 55.0825 26.4275C65.9587 26.4275 73.0469 32.9519 73.0469 41.6556C73.0469 48.5444 68.9219 53.1163 64.1988 58.3619L63.5387 59.0975L49.9675 74.36V74.8894H74.0163V82.5H37.2762V76.78L57.695 54.1406C60.6788 50.875 63.9031 47.2106 63.9031 42.4188C63.9031 37.3037 60.0737 33.9212 54.8762 33.9212C49.0806 33.9212 45.6912 38.1494 45.6912 42.9Z" fill="#777777"></path></g><defs><clipPath id="clip0_290_3811"><rect width="110" height="110" fill="white"></rect></clipPath></defs></svg>