<svg xmlns="http://www.w3.org/2000/svg" width="110" height="110" viewBox="0 0 110 110" fill="none"><g clip-path="url(#clip0_290_3807)"><path d="M54.4361 57.8464H48.3929V50.4763H54.1542C59.5167 50.4763 63.4217 46.8876 63.3804 41.972C63.3804 37.0976 59.5098 33.7563 54.1129 33.7563C48.6817 33.7563 45.0929 37.1801 44.8454 41.0095H36.2654C36.5129 33.1926 42.7967 26.4688 54.3123 26.4276C65.2711 26.3451 72.2423 32.512 72.4417 40.6038C72.5998 48.4207 66.3573 52.8139 62.2529 53.4945V53.9757C67.0861 54.457 74.0092 58.3757 74.1742 67.1551C74.3392 77.1857 65.3948 83.6276 54.0304 83.6276C42.3086 83.6276 35.4198 76.9795 35.0967 68.8876H43.5186C43.9242 72.992 48.1936 76.1751 54.1129 76.2164C60.8023 76.2576 65.1129 72.3457 65.0304 66.9076C64.9892 61.552 60.7611 57.8464 54.4361 57.8464Z" fill="#777777"></path><path d="M110 55C110 69.5869 104.205 83.5764 93.8909 93.8909C83.5764 104.205 69.5869 110 55 110C40.4131 110 26.4236 104.205 16.1091 93.8909C5.79463 83.5764 0 69.5869 0 55C0 40.4131 5.79463 26.4236 16.1091 16.1091C26.4236 5.79463 40.4131 0 55 0C69.5869 0 83.5764 5.79463 93.8909 16.1091C104.205 26.4236 110 40.4131 110 55ZM6.875 55C6.875 67.7635 11.9453 80.0043 20.9705 89.0295C29.9957 98.0547 42.2365 103.125 55 103.125C67.7635 103.125 80.0043 98.0547 89.0295 89.0295C98.0547 80.0043 103.125 67.7635 103.125 55C103.125 42.2365 98.0547 29.9957 89.0295 20.9705C80.0043 11.9453 67.7635 6.875 55 6.875C42.2365 6.875 29.9957 11.9453 20.9705 20.9705C11.9453 29.9957 6.875 42.2365 6.875 55Z" fill="#777777"></path></g><defs><clipPath id="clip0_290_3807"><rect width="110" height="110" fill="white"></rect></clipPath></defs></svg>