<svg xmlns="http://www.w3.org/2000/svg" width="512" height="512"><path d="M0 0 C0.94079871 -0.00507454 1.88159742 -0.01014909 2.85090518 -0.0153774 C3.89154282 -0.01587516 4.93218046 -0.01637292 6.00435257 -0.01688576 C7.10438716 -0.02126801 8.20442175 -0.02565027 9.33779073 -0.03016531 C13.04885093 -0.04359228 16.75988738 -0.0497409 20.47096634 -0.0558567 C23.12159278 -0.06375455 25.77221613 -0.07201794 28.42284012 -0.08063698 C36.39539938 -0.10517286 44.3679649 -0.11978986 52.3405503 -0.13269705 C54.59174857 -0.13640811 56.84294622 -0.14038141 59.09414387 -0.14444971 C73.06883951 -0.16968532 87.04353611 -0.19174203 101.01824951 -0.20417786 C104.25606922 -0.20710763 107.4938889 -0.21006929 110.73170853 -0.21308327 C111.53646965 -0.21382932 112.34123077 -0.21457537 113.1703786 -0.21534403 C126.20924859 -0.2279997 139.24798229 -0.26122484 152.28678855 -0.3028851 C165.66848862 -0.34529101 179.05011887 -0.36887133 192.43188596 -0.37409842 C199.94729205 -0.37751408 207.46248515 -0.38928719 214.97782516 -0.42220116 C221.37789548 -0.45018449 227.77770916 -0.4612087 234.17783591 -0.4500057 C237.44355789 -0.44481442 240.70862892 -0.45045424 243.97429657 -0.47247124 C247.51520347 -0.49504772 251.05474877 -0.48691968 254.59566116 -0.47098732 C255.62737592 -0.48486941 256.65909067 -0.49875149 257.7220695 -0.51305425 C262.24881407 -0.46274413 265.5366001 -0.38427013 269.17636871 2.4875145 C272.54383136 6.24006812 272.84581822 9.16138749 272.77272415 14.14092064 C272.35354805 17.96590253 270.53701749 20.27097905 267.72231078 22.75066167 C265.25366057 24.32902358 264.0092607 24.51046283 261.11058807 24.50615788 C260.22104683 24.51213049 259.33150558 24.5181031 258.41500854 24.52425671 C257.44252796 24.51551871 256.47004738 24.50678072 255.46809769 24.49777794 C254.43404297 24.50034599 253.39998825 24.50291405 252.33459854 24.50555992 C248.84799722 24.51053772 245.36182524 24.49393544 241.87526321 24.47759056 C239.34166223 24.47667188 236.80806048 24.47707148 234.27445984 24.47868633 C228.16692989 24.47929597 222.05955938 24.46642378 215.9520639 24.44718235 C208.88821133 24.42559357 201.82440512 24.42319872 194.76051712 24.42082787 C176.10831516 24.40507288 157.45614267 24.36318958 138.80397415 24.32451439 C97.14147415 24.26263939 55.47897415 24.20076439 12.55397415 24.13701439 C12.55397415 116.53701439 12.55397415 208.93701439 12.55397415 304.13701439 C104.95397415 304.13701439 197.35397415 304.13701439 292.55397415 304.13701439 C292.35602357 256.68740984 292.35602357 256.68740984 292.1035347 209.23808861 C292.08095169 200.06108665 292.08095169 200.06108665 292.07675552 195.76497459 C292.07209693 192.76421693 292.05335971 189.76390149 292.02609634 186.76326561 C291.99176469 182.93387659 291.98152444 179.10512931 291.98861277 175.27560067 C291.98713091 173.87137327 291.97723575 172.46712313 291.9578985 171.0630281 C291.80288243 159.25730088 291.80288243 159.25730088 294.96445084 155.32503319 C299.03748681 151.88351975 301.7867914 151.74744314 307.0031929 151.77763939 C311.11265919 152.35661473 312.76746992 154.13616368 315.55397415 157.13701439 C316.96598634 159.96103877 316.69301681 162.32769625 316.7078743 165.48729515 C316.71225655 166.14630609 316.71663881 166.80531703 316.72115386 167.48429799 C316.73455811 169.70284953 316.74072435 171.92136133 316.74684525 174.13994408 C316.75474497 175.72654463 316.76301384 177.31314337 316.77162552 178.89974022 C316.7978618 184.11943911 316.81315526 189.33914609 316.82741165 194.55888939 C316.83277077 196.3548006 316.83814827 198.15071175 316.84354401 199.94662285 C316.86517554 207.41671999 316.8839125 214.88681496 316.8951664 222.3569355 C316.91140674 233.06706699 316.9445833 243.77683574 317.00156724 254.48683047 C317.04025625 262.01471551 317.05979788 269.54250349 317.06508696 277.07048535 C317.06874201 281.56783002 317.08077919 286.06478793 317.1131897 290.56202507 C317.14325202 294.7941695 317.14958895 299.02569282 317.13780594 303.25792122 C317.13758504 304.80993146 317.14590346 306.36197035 317.16345978 307.9138813 C317.30455814 321.10622687 317.30455814 321.10622687 314.14250565 325.04454613 C310.56758149 327.93437588 308.93572768 328.26295043 304.420784 328.27402878 C302.77968182 328.28164059 302.77968182 328.28164059 301.10542607 328.28940618 C299.89358671 328.28990394 298.68174735 328.29040169 297.43318558 328.29091454 C296.15347468 328.29529679 294.87376379 328.29967904 293.55527377 328.30419409 C289.99128287 328.31617861 286.42730553 328.32181238 282.86329842 328.32637525 C279.02404641 328.33232422 275.18481066 328.3439358 271.34556961 328.35466576 C262.06784355 328.37920566 252.79011209 328.39381909 243.51236355 328.40672582 C240.89292721 328.41043655 238.2734914 328.41440988 235.6540556 328.41847849 C219.39572107 328.4437134 203.13738574 328.46577153 186.87903595 328.47820663 C183.11182782 328.48113644 179.34461972 328.48409809 175.57741165 328.48711205 C174.64106348 328.4878581 173.70471531 328.48860415 172.73999295 328.4893728 C157.56717861 328.50203003 142.39448137 328.53525709 127.2217218 328.57691388 C111.65231786 328.61931007 96.0829739 328.64289897 80.51351237 328.6481272 C71.76850959 328.65154392 63.02368979 328.6633297 54.27874374 328.69622993 C46.83198568 328.72419983 39.3854481 328.73524331 31.93864158 328.72403447 C28.13830809 328.71883991 24.33843655 328.72178548 20.53816986 328.74650002 C16.41935673 328.77306287 12.30156484 328.76095951 8.1826973 328.7450161 C6.97978082 328.75889819 5.77686434 328.77278027 4.53749585 328.78708303 C-4.47139189 328.7008526 -4.47139189 328.7008526 -8.17282104 325.72401428 C-11.28601359 322.18107404 -11.5717271 320.61445568 -11.58304024 316.00382423 C-11.59065205 314.36272206 -11.59065205 314.36272206 -11.59841764 312.68846631 C-11.5989154 311.47662695 -11.59941315 310.26478758 -11.59992599 309.01622581 C-11.60430825 307.73651492 -11.6086905 306.45680402 -11.61320555 305.13831401 C-11.62519007 301.57432311 -11.63082384 298.01034576 -11.63538671 294.44633865 C-11.64133568 290.60708665 -11.65294726 286.7678509 -11.66367722 282.92860985 C-11.68821712 273.65088379 -11.70283055 264.37315233 -11.71573728 255.09540379 C-11.71944801 252.47596745 -11.72342134 249.85653164 -11.72748995 247.23709583 C-11.75272486 230.97876131 -11.77478299 214.72042597 -11.78721809 198.46207619 C-11.7901479 194.69486806 -11.79310955 190.92765995 -11.7961235 187.16045189 C-11.79686956 186.22410372 -11.79761561 185.28775554 -11.79838426 184.32303318 C-11.81104149 169.15021885 -11.84426855 153.97752161 -11.88592534 138.80476204 C-11.92832152 123.23535809 -11.95191043 107.66601414 -11.95713866 92.09655261 C-11.96055538 83.35154983 -11.97234115 74.60673003 -12.00524139 65.86178398 C-12.03321129 58.41502592 -12.04425477 50.96848834 -12.03304593 43.52168182 C-12.02785137 39.72134833 -12.03079694 35.92147679 -12.05551147 32.1212101 C-12.08207433 28.00239697 -12.06997097 23.88460508 -12.05402756 19.76573753 C-12.06790964 18.56282106 -12.08179173 17.35990458 -12.09609449 16.12053609 C-12.00986406 7.11164835 -12.00986406 7.11164835 -9.03302574 3.41021919 C-5.71683135 0.49626893 -4.28758613 0.01224336 0 0 Z " fill="#212121" transform="translate(77.44602584838867,91.86298561096191)"></path><path d="M0 0 C3.1129706 1.70711291 5.3877947 3.77558941 7 7 C7.34375 9.1015625 7.34375 9.1015625 7.5 11.625 C7.5721875 12.44226563 7.644375 13.25953125 7.71875 14.1015625 C6.55611992 18.78999468 3.30796791 21.59738681 0 25 C-0.70431152 25.73057617 -1.40862305 26.46115234 -2.13427734 27.21386719 C-4.38282749 29.51667724 -6.6559025 31.79245489 -8.9375 34.0625 C-10.07735352 35.2081543 -10.07735352 35.2081543 -11.24023438 36.37695312 C-14.74706865 39.87779793 -18.27911593 43.29402751 -22.03515625 46.52734375 C-26.41628007 50.29957114 -30.45098863 54.37723615 -34.5 58.5 C-39.18327224 63.26857774 -43.91966352 67.84975966 -48.98632812 72.20898438 C-52.65489554 75.47191 -56.06112599 78.99848712 -59.5 82.5 C-64.18327224 87.26857774 -68.91966352 91.84975966 -73.98632812 96.20898438 C-77.65489554 99.47191 -81.06112599 102.99848712 -84.5 106.5 C-89.18327224 111.26857774 -93.91966352 115.84975966 -98.98632812 120.20898438 C-102.65489554 123.47191 -106.06112599 126.99848712 -109.5 130.5 C-114.18327224 135.26857774 -118.91966352 139.84975966 -123.98632812 144.20898438 C-127.65489554 147.47191 -131.06112599 150.99848712 -134.5 154.5 C-139.18327224 159.26857774 -143.91966352 163.84975966 -148.98632812 168.20898438 C-152.65489554 171.47191 -156.06112599 174.99848712 -159.5 178.5 C-163.55811225 182.6320305 -167.6015661 186.71556428 -171.99609375 190.4921875 C-177.2110755 194.97755907 -181.94356952 199.9282795 -186.73242188 204.859375 C-196.95472013 215.23979798 -196.95472013 215.23979798 -202.66015625 216.6640625 C-203.45292969 216.65117187 -204.24570313 216.63828125 -205.0625 216.625 C-205.85785156 216.63789063 -206.65320313 216.65078125 -207.47265625 216.6640625 C-213.30307635 215.13211286 -216.16681647 211.02266783 -219.15625 206.10546875 C-220.28240733 204.13939694 -221.39632745 202.16628134 -222.5 200.1875 C-223.73927393 198.01414646 -224.97886611 195.84097437 -226.21875 193.66796875 C-226.84652344 192.55856934 -227.47429687 191.44916992 -228.12109375 190.30615234 C-231.03563599 185.17767898 -234.01911929 180.09009745 -237 175 C-238.16704162 173.00021877 -239.33370725 171.00021807 -240.5 169 C-241.0775 168.01 -241.655 167.02 -242.25 166 C-244 163 -245.75 160 -247.5 157 C-248.07854736 156.00822754 -248.65709473 155.01645508 -249.25317383 153.99462891 C-250.40934217 152.01257986 -251.5654306 150.03048419 -252.72143555 148.04833984 C-255.79804229 142.7732874 -258.87639476 137.49926274 -261.95703125 132.2265625 C-262.60220703 131.12183594 -263.24738281 130.01710937 -263.91210938 128.87890625 C-265.15639522 126.74840242 -266.40116822 124.61818301 -267.64648438 122.48828125 C-268.20271484 121.53566406 -268.75894531 120.58304687 -269.33203125 119.6015625 C-270.07030151 118.33820068 -270.07030151 118.33820068 -270.82348633 117.04931641 C-273.49043549 112.40387726 -273.74865468 108.31382074 -273 103 C-271.3279253 99.87421857 -269.2143765 97.60718825 -266 96 C-263.828125 95.7265625 -263.828125 95.7265625 -261.25 95.625 C-260.40953125 95.57601562 -259.5690625 95.52703125 -258.703125 95.4765625 C-253.8135611 96.42338557 -251.15491997 99.31781826 -248.43847656 103.27441406 C-246.726557 106.08707798 -245.1038904 108.93687499 -243.5 111.8125 C-242.26072607 113.98585354 -241.02113389 116.15902563 -239.78125 118.33203125 C-238.83958984 119.99613037 -238.83958984 119.99613037 -237.87890625 121.69384766 C-234.96436513 126.82231906 -231.98099586 131.90997165 -229 137 C-227.84463519 138.97892333 -226.68968952 140.95809142 -225.53515625 142.9375 C-224.95910645 143.92492187 -224.38305664 144.91234375 -223.78955078 145.9296875 C-221.91875902 149.13938425 -220.05092337 152.35078796 -218.18359375 155.5625 C-217.55646484 156.64015625 -216.92933594 157.7178125 -216.28320312 158.828125 C-215.08945484 160.87960354 -213.89668016 162.93164906 -212.70507812 164.984375 C-209.85860026 169.87369877 -206.96695639 174.70754189 -203.86743164 179.44140625 C-203 181 -203 181 -203 183 C-192.36938563 173.87886864 -182.17962621 164.342335 -172.37670898 154.33984375 C-169.37349336 151.29316325 -166.32544055 148.37313108 -163.08203125 145.58203125 C-158.66397648 141.76990552 -154.58689895 137.66134155 -150.5 133.5 C-145.81672776 128.73142226 -141.08033648 124.15024034 -136.01367188 119.79101562 C-132.34510446 116.52809 -128.93887401 113.00151288 -125.5 109.5 C-120.81672776 104.73142226 -116.08033648 100.15024034 -111.01367188 95.79101562 C-107.34510446 92.52809 -103.93887401 89.00151288 -100.5 85.5 C-95.81672776 80.73142226 -91.08033648 76.15024034 -86.01367188 71.79101562 C-82.34510446 68.52809 -78.93887401 65.00151288 -75.5 61.5 C-70.81672776 56.73142226 -66.08033648 52.15024034 -61.01367188 47.79101562 C-57.34510446 44.52809 -53.93887401 41.00151288 -50.5 37.5 C-46.44188775 33.3679695 -42.3984339 29.28443572 -38.00390625 25.5078125 C-32.7889245 21.02244093 -28.05643048 16.0717205 -23.26757812 11.140625 C-10.18509125 -2.14422974 -10.18509125 -2.14422974 0 0 Z " fill="#212121" transform="translate(439,104)"></path></svg>