<svg xmlns="http://www.w3.org/2000/svg" width="64" height="62" viewBox="0 0 64 62" fill="none"><path d="M50.3603 15.89H52.5278C54.5812 15.8966 56.5604 16.6582 58.0886 18.0297C59.6169 19.4011 60.5873 21.2868 60.8153 23.3275L63.854 52.27C63.9741 53.4281 63.8499 54.5985 63.4893 55.7055C63.1288 56.8126 62.5399 57.8317 61.7608 58.6969C60.9817 59.5621 60.0297 60.2542 58.9664 60.7284C57.9031 61.2027 56.7521 61.4485 55.5878 61.45H8.46801C7.30241 61.4491 6.14997 61.2035 5.0853 60.7291C4.02062 60.2546 3.06743 59.5619 2.28742 58.6958C1.5074 57.8296 0.917948 56.8094 0.557207 55.701C0.196465 54.5926 0.0724749 53.4208 0.19326 52.2615L3.22989 23.3403C3.44537 21.2934 4.41176 19.399 5.94237 18.023C7.47298 16.647 9.45921 15.8871 11.5174 15.89H13.5149C14.9684 7.02662 22.6588 0.25 31.9301 0.25C41.1994 0.25 48.9068 7.0415 50.3624 15.89M50.6089 23.1575H50.9276C52.2239 23.1575 53.2651 24.1987 53.2864 25.495V29.3412C53.2864 30.6375 52.2451 31.6788 50.9489 31.6788H47.1026C45.8064 31.6788 44.7651 30.6375 44.7651 29.3412V25.495C44.7651 24.1987 45.8064 23.1575 47.1026 23.1575H47.4426V20.14H16.458V23.1575H16.7768C18.073 23.1575 19.1143 24.1987 19.1143 25.495V29.3412C19.1143 30.6375 18.073 31.6788 16.7768 31.6788H12.9305C11.6343 31.6788 10.593 30.6375 10.593 29.3412V25.495C10.593 24.1987 11.6343 23.1575 12.9305 23.1575H13.2705V20.14H11.5068C10.5 20.1408 9.52907 20.5142 8.78123 21.1883C8.03338 21.8624 7.56149 22.7894 7.45651 23.7908L5.52276 42.2188H58.5245L56.5865 23.7844C56.4729 22.7833 55.9953 21.8589 55.2446 21.187C54.494 20.515 53.5225 20.1424 52.515 20.14H50.6068L50.6089 23.1575ZM47.1451 15.89C45.7278 8.79675 39.4526 3.4375 31.9514 3.4375C24.4501 3.4375 18.175 8.79675 16.7576 15.89H47.1451Z" fill="white"></path></svg>