<svg xmlns="http://www.w3.org/2000/svg" width="42" height="55" viewBox="0 0 42 55" fill="none"><path d="M41.3996 34.5333C41.3996 39.9437 39.2503 45.1326 35.4246 48.9583C31.5988 52.784 26.41 54.9333 20.9996 54.9333C15.5892 54.9333 10.4004 52.784 6.57463 48.9583C2.74889 45.1326 0.599609 39.9437 0.599609 34.5333C0.601691 30.5581 1.76567 26.6702 3.94837 23.3478C6.13107 20.0254 9.23729 17.4135 12.8849 15.8333L13.6828 16.4544L17.1916 19.1789C13.7569 20.0264 10.7043 21.9981 8.5192 24.7804C6.33414 27.5626 5.14219 30.9956 5.13294 34.5333C5.13294 43.2827 12.2503 50.4 20.9996 50.4C29.7489 50.4 36.8663 43.2827 36.8663 34.5333C36.857 30.9956 35.6651 27.5626 33.48 24.7804C31.295 21.9981 28.2423 20.0264 24.8076 19.1789L29.1143 15.8333C32.7619 17.4135 35.8682 20.0254 38.0509 23.3478C40.2336 26.6702 41.3975 30.5581 41.3996 34.5333ZM20.9996 16.4L32.3329 7.58266L27.7996 0.533325H14.1996L9.66628 7.58266L16.4663 12.8731L20.9996 16.4Z" fill="white"></path></svg>