<svg xmlns:dc="http://purl.org/dc/elements/1.1/" xmlns:cc="http://creativecommons.org/ns#" xmlns:rdf="http://www.w3.org/1999/02/22-rdf-syntax-ns#" xmlns:svg="http://www.w3.org/2000/svg" xmlns="http://www.w3.org/2000/svg" xmlns:sodipodi="http://sodipodi.sourceforge.net/DTD/sodipodi-0.dtd" xmlns:inkscape="http://www.inkscape.org/namespaces/inkscape" x="0px" y="0px" viewBox="0 0 100 125"><g transform="translate(0,-952.36218)"><path style="text-indent:0;text-transform:none;direction:ltr;block-progression:tb;baseline-shift:baseline;color:#000000;enable-background:accumulate;" d="m 91.853549,962.34887 a 3.0003,3.0003 0 0 0 -2.03125,0.9687 c -10.70597,11.2013 -35.244466,37.52013 -47.031246,49.90633 l -14.8125,-13.0937 a 3.0103986,3.0103986 0 1 0 -4,4.5 l 17,15 a 3.0003,3.0003 0 0 0 4.15625,-0.1563 c 11.15479,-11.6706 37.932456,-40.42053 48.999996,-52.00003 a 3.0003,3.0003 0 0 0 -2.28125,-5.125 z m -83.8749965,4.0313 c -1.63358,0.01 -2.96711,1.7357 -3,3 l 0,70.00003 c 1.6e-4,1.5707 1.42925,2.9998 3,3 l 69.9999965,0 c 1.57075,-2e-4 2.99984,-1.4293 3,-3 l 0,-37 c 0.0224,-1.585 -1.4149,-3.03133 -3,-3.03133 -1.5851,0 -3.02241,1.44633 -3,3.03133 l 0,34 -63.999996,0 0,-64.00003 59,0 c 1.58494,0.022 3.03125,-1.4149 3.03125,-3 0,-1.5852 -1.44631,-3.0225 -3.03125,-3 l -62.0000005,0 z" fill="#000000" fill-opacity="1" stroke="none" display="inline"></path></g><text x="0" y="115" fill="#000000" font-size="5px" font-weight="bold" font-family="'Helvetica Neue', Helvetica, Arial-Unicode, Arial, Sans-serif">Created by Kimmi Studio</text><text x="0" y="120" fill="#000000" font-size="5px" font-weight="bold" font-family="'Helvetica Neue', Helvetica, Arial-Unicode, Arial, Sans-serif">from the Noun Project</text></svg>