<svg xmlns="http://www.w3.org/2000/svg" width="68" height="68" viewBox="0 0 68 68" fill="none"><path d="M35.0552 0.446117C34.9226 0.305195 34.7626 0.192911 34.585 0.116187C34.4074 0.0394618 34.2159 -7.91697e-05 34.0225 1.19008e-07C33.6069 1.19008e-07 33.2342 0.179297 32.974 0.46325L19.3271 12.0894L20.1665 13.0747L34.024 1.26863L47.9984 13.0761L48.8337 12.0879L35.0552 0.446117Z" fill="#E0E0E0"></path><path d="M57.675 57.785C57.2678 57.4303 57.265 56.7994 57.6661 56.4377C58.8328 55.3859 59.5666 53.8633 59.5666 52.1686C59.5666 50.4564 58.8174 48.92 57.6296 47.8672C57.2253 47.509 57.2253 46.8782 57.6296 46.52C58.8174 45.4672 59.5666 43.9308 59.5666 42.2186C59.5666 40.5064 58.8174 38.97 57.6296 37.9172C57.2253 37.559 57.2253 36.9281 57.6296 36.5699C58.8174 35.5171 59.5666 33.9807 59.5666 32.2685C59.5666 30.5563 58.8174 29.0199 57.6296 27.9671C57.2253 27.6089 57.2253 26.9781 57.6296 26.6199C58.8174 25.5671 59.5666 24.0307 59.5666 22.3185C59.5666 20.6413 58.8482 19.1323 57.7025 18.0815C57.3044 17.7165 57.31 17.0857 57.7201 16.7344C58.9506 15.6804 59.7308 14.1157 59.7308 12.3684C59.7308 10.7602 59.0695 9.30697 58.0052 8.2636C56.9618 7.1991 55.5085 6.53796 53.9003 6.53796C52.2787 6.53796 50.8147 7.20999 49.77 8.29016C49.6606 8.40378 49.5294 8.49416 49.3842 8.55589C49.2391 8.61763 49.083 8.64945 48.9252 8.64945C48.7675 8.64945 48.6114 8.61763 48.4662 8.55589C48.3211 8.49416 48.1899 8.40378 48.0805 8.29016C47.0358 7.20986 45.5718 6.53796 43.9501 6.53796C42.3285 6.53796 40.8645 7.21 39.8198 8.29029C39.7104 8.40391 39.5792 8.49429 39.434 8.55603C39.2889 8.61776 39.1328 8.64958 38.975 8.64958C38.8173 8.64958 38.6612 8.61776 38.5161 8.55603C38.3709 8.49429 38.2397 8.40391 38.1303 8.29029C37.0859 7.21 35.6219 6.5381 34.0002 6.5381C32.288 6.5381 30.7516 7.28729 29.6988 8.47517C29.3406 8.87945 28.7098 8.87945 28.3516 8.47517C27.2988 7.28729 25.7624 6.5381 24.0502 6.5381C22.3457 6.5381 20.8153 7.28052 19.7629 8.4591C19.4178 8.84558 18.8225 8.87055 18.4529 8.50744L18.205 8.26386C17.1034 7.14 15.545 6.46558 13.8295 6.54434C10.8871 6.67941 8.49305 9.07349 8.35785 12.0159C8.27909 13.7314 8.95352 15.2899 10.0774 16.3915C10.1494 16.4649 10.2234 16.5365 10.2992 16.6061C10.6967 16.9709 10.6904 17.6014 10.2806 17.9524C9.0498 19.0064 8.26953 20.5712 8.26953 22.3187C8.26953 24.031 9.01859 25.5673 10.2066 26.6201C10.6109 26.9783 10.6109 27.6092 10.2066 27.9674C9.01873 29.0202 8.26953 30.5566 8.26953 32.2688C8.26953 33.981 9.01859 35.5174 10.2066 36.5702C10.6109 36.9284 10.6109 37.5592 10.2066 37.9174C9.01873 38.9702 8.26953 40.5066 8.26953 42.2188C8.26953 43.9311 9.01859 45.4674 10.2066 46.5202C10.6109 46.8784 10.6109 47.5093 10.2066 47.8675C9.01873 48.9203 8.26953 50.4567 8.26953 52.1689C8.26953 53.8811 9.01859 55.4175 10.2066 56.4703C10.6109 56.8285 10.6109 57.4593 10.2066 57.8175C9.01873 58.8703 8.26953 60.4067 8.26953 62.1189C8.26953 65.2937 10.8432 67.8673 14.0179 67.8673C14.0317 67.8673 14.0453 67.8664 14.059 67.8663C14.0726 67.8664 14.0862 67.8673 14.1 67.8673C15.8122 67.8673 17.3486 67.1181 18.4014 65.9303C18.7596 65.526 19.3905 65.526 19.7486 65.9303C20.8015 67.1181 22.3378 67.8673 24.05 67.8673C25.7623 67.8673 27.2986 67.1181 28.3514 65.9303C28.7096 65.526 29.3405 65.526 29.6987 65.9303C30.7515 67.1181 32.2879 67.8673 34.0001 67.8673C35.7123 67.8673 37.2487 67.1181 38.3015 65.9303C38.6597 65.526 39.2905 65.526 39.6487 65.9303C40.7015 67.1181 42.2379 67.8673 43.9501 67.8673C45.6435 67.8673 47.1655 67.1349 48.2174 65.9696C48.5737 65.5748 49.1945 65.5748 49.5508 65.9696C50.6027 67.1347 52.1246 67.8673 53.8181 67.8673C53.8319 67.8673 53.8455 67.8664 53.8591 67.8663C53.8728 67.8664 53.8864 67.8673 53.9002 67.8673C57.0749 67.8673 59.6486 65.2937 59.6486 62.1189C59.6487 60.3889 58.8841 58.8385 57.675 57.785ZM43.9503 56.3701C41.8247 56.3701 39.9699 57.5247 38.9753 59.2401C37.9806 57.5248 36.1259 56.3701 34.0002 56.3701C31.8746 56.3701 30.0198 57.5247 29.0252 59.2401C28.0306 57.5248 26.1758 56.3701 24.0502 56.3701C21.9245 56.3701 20.0698 57.5247 19.0752 59.2401C18.5626 58.3568 17.8251 57.6253 16.9377 57.12C18.6305 56.1197 19.7666 54.2773 19.7666 52.1686C19.7666 50.0431 18.612 48.1882 16.8966 47.1936C18.6119 46.199 19.7666 44.3442 19.7666 42.2186C19.7666 40.093 18.612 38.2382 16.8966 37.2435C18.6119 36.2489 19.7666 34.3942 19.7666 32.2685C19.7666 30.1429 18.612 28.2881 16.8966 27.2935C18.6119 26.2989 19.7666 24.4441 19.7666 22.3185C19.7666 20.2267 18.6491 18.3964 16.9787 17.3906C17.8741 16.8905 18.6202 16.1608 19.1401 15.2768C20.1495 16.9307 21.9709 18.0349 24.0502 18.0349C26.1757 18.0349 28.0306 16.8803 29.0252 15.1649C30.0198 16.8802 31.8746 18.0349 34.0002 18.0349C36.1259 18.0349 37.9806 16.8803 38.9753 15.1649C39.9699 16.8802 41.8247 18.0349 43.9503 18.0349C46.0758 18.0349 47.9307 16.8803 48.9253 15.1649C49.186 15.6147 49.5064 16.0272 49.8776 16.3912C50.2192 16.7401 50.6036 17.0442 51.0217 17.2963C49.261 18.2789 48.0697 20.1591 48.0697 22.3185C48.0697 24.444 49.2243 26.2989 50.9397 27.2935C49.2244 28.2881 48.0697 30.143 48.0697 32.2685C48.0697 34.3941 49.2243 36.2489 50.9397 37.2435C49.2244 38.2382 48.0697 40.0929 48.0697 42.2186C48.0697 44.3441 49.2243 46.199 50.9397 47.1936C49.2244 48.1882 48.0697 50.043 48.0697 52.1686C48.0697 54.2942 49.2243 56.149 50.9397 57.1436C50.0942 57.6339 49.387 58.3307 48.8843 59.1688C47.8799 57.4925 46.0465 56.3701 43.9503 56.3701Z" fill="white"></path><path d="M51.9651 62.1186H16.023C14.9608 62.1186 14.0996 61.2575 14.0996 60.1952V14.2919C14.0996 13.2297 14.9608 12.3685 16.023 12.3685H51.9651C53.0274 12.3685 53.8885 13.2297 53.8885 14.2919V60.1952C53.8885 61.2575 53.0274 62.1186 51.9651 62.1186Z" fill="#777777"></path><path d="M47.769 46.4773L37.6439 32.9773C37.273 32.4825 36.5309 32.4863 36.16 32.9812L29.5414 41.8129L27.2099 39.2454C26.8419 38.8401 26.2048 38.8406 25.8368 39.2459L19.3196 46.4101C18.7788 47.0059 19.2016 47.9454 20.0062 47.9454H47.0271C47.7911 47.9453 48.2273 47.0886 47.769 46.4773Z" fill="#212121"></path><path d="M44.0229 28.3624C45.5279 28.3624 46.7479 27.1424 46.7479 25.6374C46.7479 24.1324 45.5279 22.9124 44.0229 22.9124C42.5179 22.9124 41.2979 24.1324 41.2979 25.6374C41.2979 27.1424 42.5179 28.3624 44.0229 28.3624Z" fill="#212121"></path><path d="M47.8693 40.7652C48.1851 40.5426 48.6029 40.4548 49.0387 40.5856C49.5884 40.7506 49.9531 41.2733 49.9531 41.8474C49.9531 41.8527 49.9487 41.8571 49.9434 41.8571H37.188C36.9034 41.8571 36.6928 41.5866 36.7681 41.3121C37.0069 40.4402 37.805 39.7995 38.7528 39.7995C38.7528 38.7895 39.5716 37.9706 40.5817 37.9706C41.5919 37.9706 42.4107 38.7893 42.4107 39.7995C42.4107 38.1827 43.7717 36.8836 45.4107 36.9856C46.7635 37.0698 47.8855 38.135 48.0325 39.4825C48.0823 39.9265 48.0265 40.376 47.8694 40.7943L47.8693 40.7652ZM24.4227 26.9842C24.1069 26.7616 23.689 26.6738 23.2533 26.8046C22.7036 26.9696 22.3389 27.4923 22.3389 28.0663C22.3389 28.0716 22.3432 28.076 22.3486 28.076H35.104C35.3886 28.076 35.5991 27.8056 35.5238 27.5311C35.285 26.6592 34.487 26.0185 33.5392 26.0185C33.5392 25.0085 32.7204 24.1895 31.7102 24.1895C30.7002 24.1895 29.8813 25.0083 29.8813 26.0185C29.8813 24.4016 28.5202 23.1026 26.8813 23.2046C25.5285 23.2888 24.4065 24.354 24.2595 25.7015C24.2096 26.1455 24.2655 26.595 24.4226 27.0133V26.9842H24.4227Z" fill="white"></path></svg>