<svg xmlns="http://www.w3.org/2000/svg" width="62" height="22" viewBox="0 0 62 22" fill="none"><path d="M14.4156 0.30058C9.95439 0.305893 6.56209 1.29083 2.98226 2.29888C1.8596 2.49743 0.973073 2.8288 0.506902 3.68942C0.0378078 4.55589 0.364394 5.44945 0.711034 6.06517C1.35093 7.20138 2.35286 8.25791 2.7428 8.9476C3.203 11.3133 3.81393 13.642 4.79701 15.6812C6.52092 19.2576 9.69049 21.9295 14.7181 21.6835C20.9402 21.3794 24.4602 19.0095 26.3396 16.209C28.2192 13.4082 28.5406 10.2833 28.9348 8.70721C29.9457 6.49721 32.0264 6.47092 33.0659 8.70721C33.4599 10.2833 33.7813 13.4082 35.661 16.2089C37.5403 19.0093 41.0604 21.3793 47.2825 21.6834C52.31 21.9295 55.4797 19.2576 57.2036 15.6813C58.1868 13.642 58.7974 11.3131 59.2577 8.94774C59.6476 8.25778 60.6496 7.20125 61.2897 6.06517C61.6364 5.44945 61.9628 4.55589 61.4937 3.68956C61.0276 2.82893 60.141 2.49743 59.0181 2.29901C55.4384 1.29096 52.0461 0.305892 47.5849 0.300446C44.0149 0.296063 39.7603 0.918822 34.1749 2.65827L33.4435 2.88604C31.0001 3.31954 31.0004 3.31954 28.557 2.88604L27.8258 2.65827C22.2402 0.918822 17.9854 0.296065 14.4157 0.300315L14.4156 0.30058ZM14.4349 2.49863C17.5946 2.50128 21.3777 3.07583 26.4263 4.59334C26.7504 5.44467 27.116 6.90627 26.7076 8.35247C26.2565 10.2379 25.9307 12.7765 24.4697 14.9538C22.962 17.2004 20.3266 19.1546 14.6084 19.4343C10.3527 19.6426 8.30871 17.7803 6.82559 14.7036C5.97824 12.9465 5.41459 10.7905 4.96861 8.5145L4.97352 8.51317L4.43563 4.22864C7.68024 3.30865 10.626 2.49544 14.4351 2.49863H14.4349ZM47.5653 2.49863C51.3744 2.49557 54.3205 3.30852 57.5651 4.22864L57.0273 8.51317L57.032 8.5145C56.5861 10.7905 56.0223 12.9465 55.1753 14.7036C53.6918 17.7803 51.6478 19.6426 47.3922 19.4343C41.674 19.1545 39.0383 17.2004 37.5306 14.9538C36.0697 12.7766 35.7443 10.2379 35.293 8.35247C34.947 6.58792 35.2503 5.44467 35.5739 4.59334C40.6225 3.07583 44.4056 2.50128 47.5653 2.49863ZM14.7892 3.89714C12.3238 3.90644 9.74321 4.34007 7.62525 5.44467C5.91596 11.0263 8.09209 13.9447 9.75025 16.0697C9.92517 11.0676 7.7412 5.22022 22.5003 5.44467C20.9384 4.57555 17.9589 3.88546 14.7892 3.89741V3.89714ZM45.5857 3.89714C43.1203 3.90644 40.5399 4.34007 38.4218 5.44467C36.7125 11.0263 38.8887 13.9447 40.5468 16.0697C40.7217 11.0676 38.5379 5.22022 53.2968 5.44467C51.7349 4.57555 48.7556 3.88546 45.5857 3.89741V3.89714Z" fill="white"></path></svg>