<svg xmlns="http://www.w3.org/2000/svg" width="32" height="32" viewBox="0 0 32 32" fill="none"><path d="M16.0003 2.66699C23.3643 2.66699 29.3337 8.63632 29.3337 16.0003C29.3337 23.3643 23.3643 29.3337 16.0003 29.3337C8.63632 29.3337 2.66699 23.3643 2.66699 16.0003C2.66699 8.63632 8.63632 2.66699 16.0003 2.66699ZM16.0003 8.00032C15.6467 8.00032 15.3076 8.1408 15.0575 8.39085C14.8075 8.6409 14.667 8.98004 14.667 9.33366V16.0003C14.6671 16.3539 14.8076 16.693 15.0577 16.943L19.0577 20.943C19.3091 21.1859 19.6459 21.3203 19.9955 21.3172C20.3451 21.3142 20.6795 21.174 20.9267 20.9267C21.174 20.6795 21.3142 20.3451 21.3172 19.9955C21.3203 19.6459 21.1859 19.3091 20.943 19.0577L17.3337 15.4483V9.33366C17.3337 8.98004 17.1932 8.6409 16.9431 8.39085C16.6931 8.1408 16.3539 8.00032 16.0003 8.00032Z" fill="#333333"></path></svg>