<svg xmlns="http://www.w3.org/2000/svg" width="48" height="62" viewBox="0 0 48 62" fill="none"><path d="M38.1663 15.4167L37.305 11.5407C36.3587 7.28785 35.8883 5.16002 34.3328 3.91335C32.783 2.66669 30.6013 2.66669 26.2408 2.66669H21.7613C17.398 2.66669 15.2163 2.66669 13.6665 3.91335C12.111 5.16002 11.6407 7.28502 10.6915 11.5407L9.83301 15.4167M38.1663 46.5834L37.305 50.4594C36.3587 54.7122 35.8883 56.84 34.3328 58.0867C32.7802 59.3334 30.6013 59.3334 26.2408 59.3334H21.7613C17.4008 59.3334 15.222 59.3334 13.6693 58.0867C12.1138 56.84 11.6435 54.715 10.6943 50.4594L9.83301 46.5834" stroke="white" stroke-width="4"></path><path d="M45.25 31C45.25 36.6358 43.0112 42.0409 39.026 46.026C35.0409 50.0112 29.6358 52.25 24 52.25C18.3641 52.25 12.9591 50.0112 8.97398 46.026C4.98883 42.0409 2.75 36.6358 2.75 31C2.75 25.3641 4.98883 19.9591 8.97398 15.974C12.9591 11.9888 18.3641 9.75 24 9.75C29.6358 9.75 35.0409 11.9888 39.026 15.974C43.0112 19.9591 45.25 25.3641 45.25 31Z" stroke="white" stroke-width="4"></path><path d="M24 22.2819V31L29.6667 36.4485" stroke="white" stroke-width="4" stroke-linecap="round" stroke-linejoin="round"></path></svg>